<svg xmlns="http://www.w3.org/2000/svg" viewBox="0 0 24 24" fill="none" stroke="currentColor" stroke-width="2" stroke-linecap="round" stroke-linejoin="round" class="lucide lucide-chef-hat"><path d="M10 22a2 2 0 1 1-4 0V8a2 2 0 0 1 2-2h0a2 2 0 0 1 2 2v14Z"/><path d="M4 8a2 2 0 0 1 2-2h0a2 2 0 0 1 2 2v0a2 2 0 0 1-2 2h0a2 2 0 0 1-2-2Z"/><path d="M14 22a2 2 0 1 1-4 0V2a2 2 0 0 1 2-2h0a2 2 0 0 1 2 2v20Z"/><path d="M10 2a2 2 0 0 1 2-2h0a2 2 0 0 1 2 2v0a2 2 0 0 1-2 2h0a2 2 0 0 1-2-2Z"/><path d="M20 22a2 2 0 1 1-4 0V14a2 2 0 0 1 2-2h0a2 2 0 0 1 2 2v8Z"/><path d="M16 14a2 2 0 0 1 2-2h0a2 2 0 0 1 2 2v0a2 2 0 0 1-2 2h0a2 2 0 0 1-2-2Z"/></svg>